<mxfile host="app.diagrams.net" modified="2024-01-25T09:52:06.595Z" agent="Mozilla/5.0 (Macintosh; Intel Mac OS X 10_15_7) AppleWebKit/537.36 (KHTML, like Gecko) Chrome/120.0.0.0 Safari/537.36" etag="Gr5HuyYCRTMOmraqcpSK" version="23.0.1" type="device">
  <diagram name="페이지-1" id="wL-5qeCEirOIAZYPeOnd">
    <mxGraphModel dx="1834" dy="1270" grid="0" gridSize="10" guides="1" tooltips="1" connect="1" arrows="1" fold="1" page="0" pageScale="1" pageWidth="827" pageHeight="1169" math="0" shadow="0">
      <root>
        <mxCell id="0" />
        <mxCell id="1" parent="0" />
        <mxCell id="5-yOR80MPb-flIkw98Z3-22" value="Client" style="html=1;whiteSpace=wrap;fontSize=16;" vertex="1" parent="1">
          <mxGeometry x="-321" y="138" width="110" height="50" as="geometry" />
        </mxCell>
        <mxCell id="5-yOR80MPb-flIkw98Z3-23" value="&lt;font style=&quot;font-size: 10px;&quot;&gt;Socket&lt;/font&gt;" style="ellipse;whiteSpace=wrap;html=1;fontSize=16;" vertex="1" parent="1">
          <mxGeometry x="-211" y="147" width="47" height="32" as="geometry" />
        </mxCell>
        <mxCell id="5-yOR80MPb-flIkw98Z3-24" value="Client" style="html=1;whiteSpace=wrap;fontSize=16;" vertex="1" parent="1">
          <mxGeometry x="-115.5" y="258" width="110" height="50" as="geometry" />
        </mxCell>
        <mxCell id="5-yOR80MPb-flIkw98Z3-25" value="&lt;font style=&quot;font-size: 10px;&quot;&gt;Socket&lt;/font&gt;" style="ellipse;whiteSpace=wrap;html=1;fontSize=16;" vertex="1" parent="1">
          <mxGeometry x="-84" y="226" width="47" height="32" as="geometry" />
        </mxCell>
        <mxCell id="5-yOR80MPb-flIkw98Z3-26" value="Server" style="html=1;whiteSpace=wrap;fontSize=16;" vertex="1" parent="1">
          <mxGeometry x="31.5" y="88" width="110" height="50" as="geometry" />
        </mxCell>
        <mxCell id="5-yOR80MPb-flIkw98Z3-27" value="&lt;font style=&quot;font-size: 10px;&quot;&gt;ServerSocket&lt;/font&gt;" style="ellipse;whiteSpace=wrap;html=1;fontSize=16;" vertex="1" parent="1">
          <mxGeometry x="-37" y="100" width="68.5" height="32" as="geometry" />
        </mxCell>
        <mxCell id="5-yOR80MPb-flIkw98Z3-31" value="" style="endArrow=block;startArrow=block;endFill=1;startFill=1;html=1;rounded=0;fontSize=12;startSize=8;endSize=8;curved=1;entryX=0;entryY=0;entryDx=0;entryDy=0;exitX=1;exitY=1;exitDx=0;exitDy=0;" edge="1" parent="1" source="5-yOR80MPb-flIkw98Z3-23" target="5-yOR80MPb-flIkw98Z3-25">
          <mxGeometry width="160" relative="1" as="geometry">
            <mxPoint x="-174" y="176" as="sourcePoint" />
            <mxPoint x="-14" y="176" as="targetPoint" />
          </mxGeometry>
        </mxCell>
        <mxCell id="5-yOR80MPb-flIkw98Z3-35" value="&lt;font style=&quot;font-size: 13px;&quot;&gt;1. 연결&lt;/font&gt;" style="text;html=1;align=center;verticalAlign=middle;resizable=0;points=[];autosize=1;strokeColor=none;fillColor=none;fontSize=16;" vertex="1" parent="1">
          <mxGeometry x="-146" y="103" width="55" height="31" as="geometry" />
        </mxCell>
        <mxCell id="5-yOR80MPb-flIkw98Z3-36" value="&lt;font style=&quot;font-size: 13px;&quot;&gt;2. accept( )&lt;/font&gt;" style="text;html=1;align=center;verticalAlign=middle;resizable=0;points=[];autosize=1;strokeColor=none;fillColor=none;fontSize=16;" vertex="1" parent="1">
          <mxGeometry x="-19" y="164" width="83" height="31" as="geometry" />
        </mxCell>
        <mxCell id="5-yOR80MPb-flIkw98Z3-53" style="edgeStyle=none;curved=1;rounded=0;orthogonalLoop=1;jettySize=auto;html=1;exitX=0;exitY=0.5;exitDx=0;exitDy=0;fontSize=12;startSize=8;endSize=8;" edge="1" parent="1" source="5-yOR80MPb-flIkw98Z3-37">
          <mxGeometry relative="1" as="geometry">
            <mxPoint x="145" y="224" as="targetPoint" />
          </mxGeometry>
        </mxCell>
        <mxCell id="5-yOR80MPb-flIkw98Z3-56" style="edgeStyle=none;curved=1;rounded=0;orthogonalLoop=1;jettySize=auto;html=1;exitX=0;exitY=0.25;exitDx=0;exitDy=0;fontSize=12;startSize=8;endSize=8;" edge="1" parent="1" source="5-yOR80MPb-flIkw98Z3-37">
          <mxGeometry relative="1" as="geometry">
            <mxPoint x="142" y="137" as="targetPoint" />
          </mxGeometry>
        </mxCell>
        <mxCell id="5-yOR80MPb-flIkw98Z3-37" value="ThreadPool" style="swimlane;fontStyle=0;childLayout=stackLayout;horizontal=1;startSize=26;fillColor=none;horizontalStack=0;resizeParent=1;resizeParentMax=0;resizeLast=0;collapsible=1;marginBottom=0;whiteSpace=wrap;html=1;fontSize=16;" vertex="1" parent="1">
          <mxGeometry x="227" y="86" width="173" height="205" as="geometry" />
        </mxCell>
        <mxCell id="5-yOR80MPb-flIkw98Z3-42" value="" style="edgeStyle=none;orthogonalLoop=1;jettySize=auto;html=1;rounded=0;fontSize=12;startSize=8;endSize=8;curved=1;entryX=0;entryY=0.5;entryDx=0;entryDy=0;" edge="1" parent="1" target="5-yOR80MPb-flIkw98Z3-27">
          <mxGeometry width="140" relative="1" as="geometry">
            <mxPoint x="-166" y="157" as="sourcePoint" />
            <mxPoint x="-26" y="157" as="targetPoint" />
            <Array as="points" />
          </mxGeometry>
        </mxCell>
        <mxCell id="5-yOR80MPb-flIkw98Z3-44" value="" style="edgeStyle=none;orthogonalLoop=1;jettySize=auto;html=1;rounded=0;fontSize=12;startSize=8;endSize=8;curved=1;entryX=1;entryY=0;entryDx=0;entryDy=0;" edge="1" parent="1" target="5-yOR80MPb-flIkw98Z3-25">
          <mxGeometry width="140" relative="1" as="geometry">
            <mxPoint x="-5.5" y="133.5" as="sourcePoint" />
            <mxPoint x="123.5" y="92.5" as="targetPoint" />
            <Array as="points" />
          </mxGeometry>
        </mxCell>
        <mxCell id="5-yOR80MPb-flIkw98Z3-50" style="edgeStyle=none;curved=1;rounded=0;orthogonalLoop=1;jettySize=auto;html=1;exitX=1;exitY=0.5;exitDx=0;exitDy=0;fontSize=12;startSize=8;endSize=8;" edge="1" parent="1" source="5-yOR80MPb-flIkw98Z3-26">
          <mxGeometry relative="1" as="geometry">
            <mxPoint x="226" y="113" as="targetPoint" />
          </mxGeometry>
        </mxCell>
        <mxCell id="5-yOR80MPb-flIkw98Z3-52" value="&lt;font style=&quot;font-size: 13px;&quot;&gt;3. get&lt;/font&gt;" style="text;html=1;align=center;verticalAlign=middle;resizable=0;points=[];autosize=1;strokeColor=none;fillColor=none;fontSize=16;" vertex="1" parent="1">
          <mxGeometry x="155" y="75" width="51" height="31" as="geometry" />
        </mxCell>
        <mxCell id="5-yOR80MPb-flIkw98Z3-55" value="Thread1" style="html=1;whiteSpace=wrap;fontSize=16;" vertex="1" parent="1">
          <mxGeometry x="106" y="226" width="73" height="50" as="geometry" />
        </mxCell>
        <mxCell id="5-yOR80MPb-flIkw98Z3-57" value="&lt;font style=&quot;font-size: 13px;&quot;&gt;5. return&lt;/font&gt;" style="text;html=1;align=center;verticalAlign=middle;resizable=0;points=[];autosize=1;strokeColor=none;fillColor=none;fontSize=16;" vertex="1" parent="1">
          <mxGeometry x="155" y="136" width="66" height="31" as="geometry" />
        </mxCell>
        <mxCell id="5-yOR80MPb-flIkw98Z3-58" value="&lt;span style=&quot;font-size: 13px;&quot;&gt;4. 생성&lt;/span&gt;" style="text;html=1;align=center;verticalAlign=middle;resizable=0;points=[];autosize=1;strokeColor=none;fillColor=none;fontSize=16;" vertex="1" parent="1">
          <mxGeometry x="148" y="173" width="55" height="31" as="geometry" />
        </mxCell>
        <mxCell id="5-yOR80MPb-flIkw98Z3-59" value="Pool에 객체가 저장되어 있으면 바로 리턴한다." style="text;html=1;align=center;verticalAlign=middle;resizable=0;points=[];autosize=1;strokeColor=none;fillColor=none;fontSize=16;shadow=0;glass=0;fontStyle=4" vertex="1" parent="1">
          <mxGeometry x="106" y="339" width="312" height="31" as="geometry" />
        </mxCell>
        <mxCell id="5-yOR80MPb-flIkw98Z3-81" value="" style="whiteSpace=wrap;html=1;fontSize=16;fillColor=none;" vertex="1" parent="1">
          <mxGeometry x="-392" y="-42" width="936" height="507" as="geometry" />
        </mxCell>
      </root>
    </mxGraphModel>
  </diagram>
</mxfile>
